<svg width="24" height="25" viewBox="0 0 24 25" fill="none" xmlns="http://www.w3.org/2000/svg">
    <g filter="url(#filter0_i)">
        <path d="M11.7521 0.0468745C11.6105 0.111328 11.4944 0.222656 11.4275 0.359375L11.3705 0.476562V2.2793C11.3705 3.60547 11.3764 4.09375 11.3941 4.12695C11.4059 4.15039 11.4236 4.18359 11.4334 4.19922C11.4413 4.21484 11.4551 4.24219 11.4629 4.25781C11.4905 4.31641 11.6459 4.44727 11.7285 4.48047C11.7757 4.5 11.8288 4.52344 11.8465 4.5332C11.8938 4.55664 12.1574 4.55469 12.1574 4.53125C12.1574 4.51953 12.1731 4.51172 12.1947 4.51172C12.2479 4.51172 12.3954 4.42578 12.4643 4.35156C12.5488 4.26367 12.6295 4.11328 12.6295 4.04297C12.6295 4.01172 12.6354 3.98242 12.6452 3.97852C12.6531 3.97266 12.6551 3.17969 12.6492 2.21289L12.6393 0.458984L12.5803 0.353515C12.4957 0.201171 12.3777 0.0937495 12.2282 0.0312495C12.1121 -0.0175786 11.8761 -0.00781298 11.7521 0.0468745Z" fill="#DEBF1F"/>
        <path d="M4.82951 2.27734C4.68787 2.31445 4.49508 2.45898 4.43606 2.57031C4.41442 2.61133 4.39082 2.65039 4.38492 2.65625C4.3436 2.68945 4.31606 2.9707 4.34754 3.05273C4.40262 3.19531 4.4341 3.25781 4.50295 3.34961C4.54426 3.40234 4.60131 3.48242 4.63278 3.52539C4.66426 3.56836 4.6977 3.60547 4.70557 3.60937C4.71344 3.61328 4.72131 3.62695 4.72131 3.64062C4.72131 3.6543 4.73705 3.68359 4.75672 3.70703C4.84131 3.80664 4.85901 3.82812 4.89246 3.88086C4.9259 3.93164 5.08524 4.15039 5.14033 4.21875C5.1541 4.23437 5.22098 4.32617 5.2918 4.42383C5.36065 4.51953 5.42557 4.60156 5.43344 4.60547C5.44131 4.60937 5.44918 4.625 5.44918 4.63867C5.44918 4.65234 5.45508 4.66797 5.46492 4.67187C5.47279 4.67383 5.5141 4.72656 5.55738 4.78516C5.60065 4.84375 5.64197 4.89453 5.64983 4.89844C5.65967 4.90234 5.66557 4.91406 5.66557 4.92383C5.66557 4.94336 5.87606 5.23633 6.03934 5.44336C6.08262 5.49805 6.11803 5.55273 6.11803 5.5625C6.11803 5.57227 6.1318 5.5918 6.14951 5.60742C6.16721 5.62109 6.23803 5.71484 6.30885 5.81445C6.45443 6.02344 6.60787 6.15039 6.72984 6.16602C6.77311 6.17187 6.81246 6.18555 6.81836 6.19336C6.83213 6.2168 6.99738 6.2168 7.01115 6.19336C7.01705 6.18555 7.05639 6.17187 7.09574 6.16797C7.17443 6.15625 7.31607 6.07227 7.39082 5.99219C7.41443 5.96875 7.46164 5.89453 7.49705 5.83008C7.55213 5.72461 7.56 5.69531 7.56 5.54687C7.56 5.34961 7.53836 5.30273 7.29049 4.9707C7.20197 4.85156 7.11147 4.72852 7.0918 4.69727C7.07213 4.66406 7.04262 4.62695 7.02885 4.61133C7.00328 4.58594 6.88131 4.41797 6.78885 4.2793C6.76328 4.24023 6.73574 4.20508 6.72984 4.19922C6.72197 4.19336 6.68262 4.14062 6.63934 4.08203C6.59606 4.02344 6.54492 3.95703 6.52721 3.9375C6.50754 3.91602 6.48787 3.88281 6.48 3.86328C6.4741 3.84375 6.46033 3.82812 6.45049 3.82812C6.44065 3.82812 6.43279 3.82031 6.43279 3.80859C6.43279 3.79883 6.41902 3.77344 6.40328 3.75586C6.38754 3.73633 6.30688 3.62891 6.22426 3.51562C6.13967 3.40234 6.06688 3.30664 6.06098 3.30078C6.05508 3.29492 6.04131 3.27734 6.02951 3.25781C6.00393 3.2168 5.80131 2.92578 5.77967 2.90039C5.76983 2.89062 5.70098 2.79687 5.62426 2.69531C5.37246 2.35937 5.27016 2.28711 5.02819 2.27539C4.93967 2.27148 4.85115 2.27148 4.82951 2.27734Z" fill="#DEBF1F"/>
        <path d="M18.8223 2.2793C18.7908 2.28321 18.7672 2.29688 18.7672 2.30665C18.7672 2.31641 18.7574 2.32423 18.7456 2.32423C18.6885 2.32423 18.5292 2.48438 18.3836 2.68555C18.362 2.7168 18.3207 2.77149 18.2912 2.81055C18.2616 2.84962 18.2302 2.88868 18.2223 2.9004C18.2125 2.91016 18.181 2.95899 18.1475 3.00782C18.1161 3.05665 18.0826 3.09766 18.0748 3.10157C18.0649 3.10548 18.059 3.11719 18.059 3.12891C18.059 3.14063 18.0374 3.17579 18.0098 3.21094C17.9823 3.24415 17.9528 3.28126 17.943 3.29298C17.9331 3.30469 17.8918 3.36134 17.8505 3.41993C17.8092 3.47852 17.7698 3.5293 17.7639 3.53516C17.758 3.54102 17.7187 3.59376 17.6754 3.65235C17.6321 3.71094 17.5908 3.76173 17.583 3.76563C17.5731 3.76954 17.5672 3.78516 17.5672 3.80079C17.5672 3.81641 17.5593 3.82813 17.5495 3.82813C17.5397 3.82813 17.5259 3.84376 17.52 3.86134C17.5141 3.88087 17.4826 3.92774 17.4492 3.96485C17.4177 4.00196 17.3902 4.03907 17.3902 4.04688C17.3902 4.05274 17.3528 4.10548 17.3056 4.16407C17.219 4.27149 17.2053 4.29102 17.0793 4.47266C17.04 4.53126 16.9967 4.5918 16.983 4.60938C16.8275 4.80274 16.5639 5.17188 16.5128 5.26954C16.4538 5.37891 16.4459 5.41212 16.4459 5.53907C16.4459 5.61915 16.4538 5.69923 16.4636 5.71876C16.4734 5.73634 16.4931 5.77735 16.5069 5.81055C16.5443 5.88868 16.558 5.90821 16.6623 6.00977C16.8039 6.14845 16.8866 6.17579 17.1226 6.16798C17.3193 6.16212 17.3233 6.16212 17.4413 6.08009C17.52 6.02735 17.5967 5.95118 17.6577 5.86524C17.7089 5.79298 17.76 5.72852 17.7679 5.72657C17.7757 5.72266 17.7836 5.70899 17.7836 5.69532C17.7836 5.68165 17.8053 5.6504 17.8328 5.62501C17.8603 5.59962 17.882 5.56837 17.882 5.55274C17.882 5.53907 17.8879 5.52735 17.8977 5.52735C17.9056 5.5254 17.943 5.48048 17.9803 5.42579C18.0177 5.3711 18.1318 5.21876 18.2321 5.08399C18.3305 4.94923 18.4131 4.83594 18.4131 4.83204C18.4131 4.82032 18.5134 4.68555 18.5331 4.66798C18.539 4.66212 18.5725 4.61719 18.6059 4.56641C18.6413 4.51759 18.6807 4.46485 18.6944 4.44923C18.7082 4.43555 18.7397 4.39259 18.7613 4.35548C18.7849 4.31641 18.8203 4.26563 18.842 4.24415C18.8616 4.22071 18.8931 4.18165 18.9108 4.15626C18.9285 4.13087 19.0171 4.01173 19.1056 3.89063C19.1961 3.76954 19.32 3.59766 19.383 3.50782C19.4459 3.41798 19.5128 3.32813 19.5305 3.30665C19.5482 3.28712 19.5797 3.23634 19.6013 3.19337C19.621 3.1504 19.6446 3.09962 19.6544 3.08204C19.68 3.03321 19.6761 2.78516 19.6505 2.72071C19.5895 2.57423 19.5698 2.54102 19.5108 2.47852C19.4754 2.44141 19.4026 2.38087 19.3475 2.34376C19.2531 2.2793 19.2393 2.2754 19.0623 2.27344C18.96 2.27149 18.8518 2.27344 18.8223 2.2793Z" fill="#DEBF1F"/>
        <path d="M11.5082 5.95508C11.4925 5.96289 11.3666 5.97656 11.2288 5.98438C10.9731 5.99609 10.8 6.02149 10.7311 6.05274C10.7095 6.0625 10.6308 6.08203 10.5541 6.09375C10.3121 6.13086 10.2885 6.13672 10.2767 6.1543C10.2708 6.16406 10.2492 6.17188 10.2295 6.17188C10.1862 6.17188 9.80262 6.29492 9.70426 6.33984C9.67081 6.35352 9.63344 6.36719 9.62163 6.36719C9.60983 6.36719 9.58426 6.375 9.56459 6.38477C9.54688 6.39453 9.49573 6.41797 9.45245 6.43555C9.12 6.57617 8.77573 6.74805 8.72852 6.79492C8.71672 6.80664 8.69508 6.81641 8.68131 6.81641C8.66557 6.81641 8.63803 6.83203 8.61639 6.85156C8.59672 6.87109 8.53377 6.91016 8.48065 6.93945C8.42557 6.96875 8.34098 7.02149 8.29377 7.05469C8.24655 7.08985 8.14622 7.16211 8.07147 7.2168C7.99868 7.26953 7.92786 7.32227 7.91606 7.33399C7.90229 7.34375 7.84524 7.38867 7.78819 7.43164C7.73114 7.47461 7.55016 7.64063 7.38688 7.80274C6.9777 8.20508 6.72983 8.4961 6.52327 8.81836C6.48196 8.88086 6.43672 8.94531 6.42098 8.95899C6.40524 8.97461 6.39344 9 6.39344 9.01563C6.39344 9.03125 6.38557 9.04297 6.37376 9.04297C6.36393 9.04297 6.35409 9.05274 6.35409 9.06446C6.35409 9.07617 6.32852 9.1211 6.29901 9.16602C6.26754 9.21094 6.21245 9.3086 6.17508 9.38477C6.1377 9.45899 6.10426 9.52539 6.09835 9.53125C6.07475 9.55469 5.94098 9.8418 5.94098 9.8711C5.94098 9.88867 5.93311 9.90235 5.92131 9.90235C5.91147 9.90235 5.90163 9.91992 5.90163 9.93946C5.90163 9.96094 5.8918 9.98438 5.88196 9.99024C5.87016 9.9961 5.86229 10.0156 5.86229 10.0293C5.86229 10.0449 5.84065 10.1055 5.81311 10.1641C5.78557 10.2227 5.76393 10.2832 5.76393 10.3008C5.76393 10.3164 5.75606 10.3359 5.74426 10.3418C5.73442 10.3477 5.72458 10.375 5.72458 10.4004C5.72458 10.4258 5.71672 10.4512 5.70688 10.457C5.69704 10.4629 5.68327 10.5078 5.67737 10.5547C5.6695 10.6035 5.64983 10.6699 5.63213 10.7031C5.61639 10.7363 5.59868 10.8008 5.59278 10.8457C5.58688 10.8906 5.57311 10.9375 5.56327 10.9512C5.55344 10.9648 5.5495 10.9844 5.55737 10.9961C5.56327 11.0078 5.5554 11.043 5.53967 11.0762C5.52196 11.1113 5.50229 11.207 5.49639 11.293C5.48852 11.377 5.47475 11.4512 5.46688 11.457C5.45704 11.4629 5.44917 11.5137 5.44917 11.5703C5.44917 11.625 5.43737 11.6836 5.42557 11.6953C5.4059 11.7148 5.39999 11.9023 5.39999 12.5C5.39999 13.0977 5.4059 13.2852 5.42557 13.3027C5.43737 13.3164 5.44917 13.375 5.44917 13.4297C5.44917 13.4863 5.45704 13.5371 5.46688 13.543C5.47475 13.5488 5.48852 13.623 5.49639 13.707C5.50229 13.793 5.52196 13.8887 5.53967 13.9238C5.5554 13.957 5.56327 13.9922 5.55737 14.0039C5.5495 14.0156 5.55344 14.0352 5.56327 14.0488C5.57311 14.0625 5.58688 14.1094 5.59278 14.1543C5.59868 14.1992 5.61639 14.2637 5.63213 14.2969C5.64983 14.3301 5.6695 14.3965 5.67737 14.4453C5.68327 14.4922 5.69704 14.5371 5.70688 14.543C5.71672 14.5488 5.72458 14.5742 5.72458 14.5996C5.72458 14.625 5.73442 14.6523 5.74426 14.6582C5.75606 14.6641 5.76393 14.6836 5.76393 14.6992C5.76393 14.7168 5.78557 14.7773 5.81311 14.8359C5.84065 14.8945 5.86229 14.9551 5.86229 14.9707C5.86229 14.9844 5.87213 15.0039 5.88196 15.0098C5.89376 15.0156 5.90163 15.0391 5.90163 15.0605C5.90163 15.0801 5.91147 15.0977 5.92131 15.0977C5.93311 15.0977 5.94098 15.1133 5.94098 15.1309C5.94098 15.1641 6.07672 15.4512 6.10032 15.4688C6.10622 15.4746 6.11999 15.5 6.12786 15.5273C6.13573 15.5547 6.15934 15.5996 6.17901 15.6289C6.20065 15.6563 6.21639 15.6855 6.21639 15.6953C6.21639 15.7031 6.24786 15.7559 6.28524 15.8125C6.32262 15.8691 6.35409 15.9238 6.35409 15.9355C6.35409 15.9473 6.36393 15.957 6.37376 15.957C6.38557 15.957 6.39344 15.9688 6.39344 15.9844C6.39344 16 6.40524 16.0254 6.42098 16.041C6.43672 16.0547 6.48196 16.1191 6.52327 16.1816C6.58426 16.2773 6.65114 16.373 6.7436 16.4941C6.80262 16.5723 6.91868 16.7129 6.93836 16.7285C6.95016 16.7383 6.99344 16.7871 7.03278 16.8359C7.27081 17.127 7.68983 17.5059 8.10491 17.8106C8.16393 17.8535 8.22295 17.8965 8.23278 17.9043C8.27409 17.9395 8.47672 18.0664 8.48852 18.0664C8.49836 18.0664 8.61442 18.1426 8.63606 18.1641C8.64196 18.1699 8.68918 18.1953 8.74032 18.2227C8.92524 18.3164 8.94098 18.3262 8.95278 18.3438C8.95868 18.3555 8.97049 18.3613 8.97836 18.3594C8.98426 18.3594 9.05114 18.3848 9.12393 18.418C9.19672 18.4512 9.29508 18.4981 9.34426 18.5195C9.39344 18.541 9.46622 18.5762 9.50754 18.5957C9.54688 18.6152 9.6118 18.6367 9.64918 18.6445C9.68655 18.6504 9.72393 18.6641 9.72983 18.6738C9.73573 18.6836 9.75737 18.6914 9.77901 18.6914C9.79868 18.6914 9.81639 18.6992 9.81639 18.7109C9.81639 18.7207 9.83213 18.7305 9.8518 18.7305C9.87147 18.7305 9.95213 18.752 10.0288 18.7793C10.1056 18.8066 10.1921 18.8281 10.2197 18.8281C10.2472 18.8281 10.2688 18.8359 10.2688 18.8457C10.2688 18.8555 10.3023 18.8672 10.3436 18.875C10.5698 18.9082 10.7154 18.9395 10.7508 18.959C10.7961 18.9844 11.158 19.0234 11.3429 19.0234C11.4118 19.0234 11.4708 19.0313 11.4767 19.041C11.4944 19.0664 12.0492 19.082 12.2951 19.0625C12.419 19.0527 12.6315 19.0352 12.7672 19.0254C13.0466 19.0039 13.2748 18.9688 13.2885 18.9453C13.2944 18.9375 13.3574 18.9238 13.4302 18.916C13.501 18.9082 13.5797 18.8945 13.6013 18.8867C13.6249 18.8789 13.678 18.8613 13.7213 18.8516C13.8669 18.8145 14.2721 18.6836 14.3213 18.6582C14.3488 18.6445 14.3803 18.6328 14.3941 18.6328C14.4079 18.6328 14.4472 18.6172 14.4826 18.5977C14.518 18.5781 14.5849 18.5508 14.6321 18.5352C14.6774 18.5215 14.7148 18.502 14.7148 18.4922C14.7148 18.4844 14.7266 18.4766 14.7403 18.4766C14.7521 18.4766 14.817 18.4492 14.882 18.418C14.9469 18.3867 15.0059 18.3594 15.0157 18.3594C15.0236 18.3594 15.0964 18.3203 15.1751 18.2715C15.2557 18.2227 15.3266 18.1836 15.3344 18.1836C15.3403 18.1836 15.4544 18.1133 15.5843 18.0273C15.7161 17.9414 15.8321 17.8711 15.84 17.8711C15.8479 17.8711 15.8557 17.8633 15.8557 17.8516C15.8557 17.8418 15.8793 17.8203 15.9108 17.8047C15.9403 17.7891 15.9875 17.7559 16.0151 17.7305C16.0446 17.7051 16.0977 17.6621 16.1331 17.6328C16.1705 17.6035 16.2256 17.5605 16.257 17.5352C16.4144 17.4102 16.7666 17.0684 16.9377 16.875C16.9967 16.8086 17.0557 16.7441 17.0656 16.7305C17.1108 16.6836 17.2859 16.4629 17.3508 16.373C17.3882 16.3223 17.4275 16.2715 17.4354 16.2598C17.4511 16.2383 17.5908 16.0273 17.6911 15.8691C17.7246 15.8145 17.7895 15.7012 17.8328 15.6152C17.878 15.5293 17.9233 15.4414 17.9351 15.4199C17.9489 15.3984 17.9705 15.3516 17.9843 15.3164C17.998 15.2832 18.0157 15.2539 18.0236 15.2539C18.0315 15.2539 18.0433 15.2227 18.0511 15.1855C18.057 15.1484 18.0708 15.1113 18.0807 15.1055C18.0905 15.0996 18.0984 15.0781 18.0984 15.0566C18.0984 15.0371 18.1082 15.0195 18.118 15.0195C18.1298 15.0195 18.1377 15.0059 18.1377 14.9902C18.1377 14.9746 18.1456 14.9453 18.1554 14.9258C18.1967 14.8496 18.2361 14.748 18.2361 14.7207C18.2361 14.7031 18.2459 14.6836 18.2557 14.6777C18.2675 14.6719 18.2754 14.6445 18.2754 14.6191C18.2754 14.5938 18.2833 14.5684 18.2931 14.5625C18.3029 14.5566 18.3167 14.5098 18.3246 14.459C18.3325 14.4102 18.3502 14.3496 18.3639 14.3281C18.3797 14.3047 18.4052 14.2168 18.421 14.1309C18.4367 14.0449 18.4643 13.9258 18.48 13.8672C18.4977 13.8086 18.5115 13.7246 18.5115 13.6816C18.5115 13.6367 18.5193 13.5938 18.5292 13.582C18.5508 13.5605 18.5626 13.4648 18.6039 12.9258C18.6334 12.5293 18.6334 12.4707 18.6039 12.0762C18.5626 11.5352 18.5508 11.4395 18.5292 11.418C18.5193 11.4063 18.5115 11.3633 18.5115 11.3184C18.5115 11.2754 18.4977 11.1914 18.48 11.1328C18.4643 11.0742 18.4367 10.9551 18.421 10.8691C18.4033 10.7832 18.3797 10.6953 18.3639 10.6719C18.3502 10.6504 18.3325 10.5898 18.3246 10.541C18.3167 10.4902 18.3029 10.4434 18.2931 10.4375C18.2833 10.4316 18.2754 10.4063 18.2754 10.3809C18.2754 10.3555 18.2675 10.3281 18.2557 10.3223C18.2459 10.3164 18.2361 10.2969 18.2361 10.2813C18.2361 10.2637 18.2144 10.2031 18.1869 10.1445C18.1593 10.0859 18.1377 10.0254 18.1377 10.0098C18.1377 9.99414 18.1298 9.98047 18.118 9.98047C18.1082 9.98047 18.0984 9.95899 18.0984 9.93164C18.0984 9.9043 18.0905 9.88281 18.0787 9.88281C18.0689 9.88281 18.059 9.86914 18.059 9.85156C18.059 9.83594 18.0374 9.78321 18.0098 9.73438C17.9823 9.68555 17.9607 9.63477 17.9607 9.61914C17.9607 9.60547 17.9548 9.58985 17.9469 9.58594C17.937 9.58203 17.8918 9.50196 17.8426 9.4043C17.7934 9.3086 17.7207 9.17578 17.6774 9.11133C17.4866 8.81641 17.4492 8.75781 17.4354 8.74024C17.4256 8.72852 17.3843 8.67188 17.341 8.61328C17.2977 8.55469 17.2544 8.4961 17.2426 8.48438C17.2328 8.47266 17.1974 8.42969 17.1639 8.38867C17.1325 8.34766 17.097 8.30469 17.0852 8.29297C17.0754 8.28125 17.0085 8.20703 16.9377 8.12696C16.7331 7.89453 16.5069 7.67578 16.259 7.47071C16.1941 7.41797 16.1311 7.36524 16.1193 7.35352C16.1075 7.34375 16.0662 7.3125 16.0269 7.28516C15.9875 7.25781 15.9541 7.23047 15.9541 7.22071C15.9541 7.21289 15.9403 7.20703 15.9246 7.20703C15.9088 7.20703 15.8852 7.18946 15.8715 7.16797C15.8577 7.14649 15.84 7.12891 15.8321 7.12891C15.8223 7.12891 15.7613 7.0918 15.6925 7.04492C15.6256 6.99805 15.5272 6.93555 15.4721 6.9043C15.419 6.875 15.3698 6.84375 15.3639 6.83594C15.358 6.82813 15.3344 6.81641 15.3108 6.80859C15.2852 6.80078 15.2656 6.78711 15.2656 6.7793C15.2656 6.77149 15.2164 6.74414 15.1574 6.71875C15.0984 6.69336 15.0492 6.66406 15.0492 6.65625C15.0492 6.64844 15.0393 6.64063 15.0275 6.64063C15.0157 6.64063 14.9469 6.61328 14.8741 6.58008C14.8033 6.54688 14.7049 6.50195 14.6557 6.48047C14.6066 6.45899 14.5338 6.42383 14.4925 6.4043C14.4531 6.38477 14.3882 6.36328 14.3508 6.35547C14.3134 6.34961 14.2761 6.33594 14.2702 6.32617C14.2643 6.31641 14.2426 6.30859 14.221 6.30859C14.2013 6.30859 14.1836 6.30078 14.1836 6.29297C14.1836 6.28516 14.1305 6.26563 14.0656 6.25195C14.0007 6.23633 13.9416 6.21875 13.9357 6.20899C13.9318 6.19922 13.8826 6.1875 13.8295 6.17969C13.7744 6.17188 13.7311 6.16016 13.7311 6.15234C13.7311 6.14453 13.6977 6.13281 13.6584 6.125C13.4636 6.0957 13.2826 6.06055 13.2354 6.03906C13.2079 6.02734 13.0741 6.00781 12.9403 5.99805C12.8066 5.98633 12.6492 5.9707 12.5902 5.96484C12.4072 5.94531 11.5397 5.9375 11.5082 5.95508Z" fill="#DEBF1F"/>
        <path d="M23.2131 8.20508C23.1757 8.2168 23.1148 8.23047 23.0813 8.23633C23.0459 8.24219 23.0164 8.25391 23.0164 8.26367C23.0164 8.27344 22.9948 8.28125 22.9692 8.28125C22.9416 8.28125 22.9161 8.28906 22.9102 8.29883C22.9043 8.3086 22.8649 8.32227 22.8256 8.33008C22.7843 8.33594 22.7331 8.35352 22.7115 8.36719C22.6898 8.38086 22.6367 8.39844 22.5934 8.40625C22.5128 8.42188 22.3672 8.4668 22.2984 8.4961C22.2767 8.50586 22.2236 8.52344 22.1803 8.53711C22.1371 8.54883 22.0682 8.57227 22.0269 8.58594C21.9875 8.60157 21.9305 8.61328 21.9049 8.61328C21.8774 8.61328 21.8557 8.6211 21.8557 8.62891C21.8557 8.63672 21.8144 8.6543 21.7633 8.66797C21.7102 8.6836 21.6531 8.70313 21.6354 8.71289C21.6157 8.72266 21.5823 8.73047 21.5626 8.73047C21.541 8.73047 21.5194 8.73828 21.5134 8.74805C21.5056 8.75782 21.4643 8.77149 21.419 8.7793C21.3738 8.78711 21.3207 8.80078 21.301 8.81055C21.2813 8.82032 21.2479 8.83594 21.2262 8.84766C21.2046 8.85742 21.1731 8.86719 21.1574 8.86719C21.1416 8.86719 21.1121 8.875 21.0925 8.88477C21.0748 8.89453 21.0059 8.91797 20.941 8.93555C20.8761 8.95508 20.8053 8.97657 20.7836 8.98633C20.6853 9.02539 20.5515 9.0625 20.5082 9.0625C20.4807 9.0625 20.459 9.06836 20.459 9.07617C20.459 9.08594 20.3902 9.11328 20.3056 9.13867C20.223 9.16407 20.1462 9.19141 20.1344 9.19922C20.1246 9.20703 20.0813 9.21875 20.04 9.22657C19.9613 9.24024 19.9397 9.25586 19.7961 9.38282C19.7095 9.46094 19.6328 9.5918 19.6328 9.66602C19.6328 9.6875 19.6249 9.71094 19.6131 9.7168C19.5875 9.73243 19.5875 9.91211 19.6112 9.95704C19.623 9.97461 19.6367 10.0234 19.6426 10.0625C19.6485 10.1035 19.6623 10.1367 19.6721 10.1367C19.6839 10.1367 19.6918 10.1484 19.6918 10.1641C19.6918 10.1973 19.8885 10.3906 19.9239 10.3906C19.9357 10.3906 19.9475 10.3984 19.9475 10.4063C19.9475 10.4609 20.3961 10.5 20.4453 10.4512C20.4571 10.4395 20.4866 10.4297 20.5102 10.4297C20.5357 10.4297 20.5613 10.4199 20.5672 10.4102C20.5731 10.3984 20.6007 10.3906 20.6282 10.3906C20.6538 10.3906 20.6754 10.3809 20.6754 10.3711C20.6754 10.3594 20.6912 10.3516 20.7089 10.3516C20.7285 10.3516 20.8092 10.3301 20.8918 10.3047C20.9725 10.2773 21.1456 10.2246 21.2754 10.1836C21.4053 10.1426 21.5213 10.1035 21.5312 10.0957C21.543 10.0879 21.5921 10.0762 21.6453 10.0684C21.6964 10.0606 21.7377 10.0488 21.7377 10.041C21.7377 10.0332 21.779 10.0176 21.8321 10.002C21.8833 9.98829 21.9423 9.96875 21.9639 9.96094C21.9856 9.95118 22.0839 9.91993 22.1803 9.89063C22.2787 9.86133 22.3653 9.83008 22.3751 9.82032C22.3869 9.8125 22.4144 9.80469 22.438 9.80469C22.4636 9.80469 22.4872 9.79688 22.4931 9.78711C22.501 9.77735 22.5384 9.76368 22.5797 9.75586C22.6662 9.74219 22.7921 9.70118 22.8118 9.68164C22.8197 9.67383 22.8472 9.66797 22.8708 9.66797C22.8964 9.66797 22.92 9.66016 22.9259 9.65039C22.9318 9.64258 22.9751 9.62891 23.0203 9.6211C23.0656 9.61328 23.1128 9.59961 23.1246 9.58985C23.1364 9.58008 23.1974 9.5586 23.2603 9.54297C23.3233 9.52539 23.4 9.5 23.4334 9.48438C23.4649 9.4668 23.5239 9.44922 23.5653 9.44141C23.6557 9.42383 23.7285 9.375 23.8485 9.25C23.9823 9.11133 24 9.05664 23.998 8.81055C23.998 8.59375 23.998 8.59766 23.8839 8.43555C23.8407 8.37305 23.7167 8.27735 23.6125 8.22461C23.5515 8.19336 23.2957 8.18164 23.2131 8.20508Z" fill="#DEBF1F"/>
        <path d="M0.442623 8.22852C0.411148 8.24024 0.379672 8.25586 0.373771 8.26172C0.367869 8.26758 0.338361 8.28516 0.306885 8.30079C0.24 8.33594 0.0983607 8.48829 0.0609836 8.56641C0.0472131 8.59766 0.027541 8.63868 0.0177049 8.65625C0.00786885 8.67579 0 8.75977 0 8.84571C0 8.98047 0.00786885 9.01368 0.0609836 9.11329C0.0944262 9.17774 0.139672 9.25 0.163279 9.27539C0.228197 9.34375 0.36 9.42969 0.424918 9.44532C0.456394 9.45313 0.491803 9.46485 0.503607 9.47461C0.513443 9.48438 0.574426 9.50391 0.637377 9.51953C0.700328 9.53711 0.777049 9.5625 0.808525 9.57813C0.841967 9.59375 0.906885 9.61328 0.954098 9.6211C1.00328 9.62696 1.04262 9.64063 1.04262 9.65039C1.04262 9.66016 1.0623 9.66797 1.08787 9.66797C1.11344 9.66797 1.14098 9.67578 1.15082 9.6836C1.16262 9.69336 1.2059 9.71094 1.24918 9.72266C1.51672 9.79688 1.5659 9.8125 1.58164 9.82813C1.59344 9.83594 1.62098 9.84375 1.64656 9.84375C1.67213 9.84375 1.6918 9.85157 1.6918 9.86328C1.6918 9.87305 1.70951 9.88282 1.73115 9.88282C1.77443 9.88282 2.16984 10.0078 2.22689 10.0391C2.24459 10.0488 2.29574 10.0645 2.34098 10.0703C2.38426 10.0781 2.42557 10.0918 2.43148 10.0996C2.43738 10.1094 2.45902 10.1172 2.48066 10.1172C2.50033 10.1172 2.53377 10.125 2.55344 10.1367C2.60459 10.166 2.88787 10.2539 2.92918 10.2539C2.94885 10.2539 2.97049 10.2598 2.97836 10.2676C2.98623 10.2754 3.00393 10.2832 3.01574 10.2832C3.02951 10.2852 3.06098 10.2949 3.08853 10.3066C3.11607 10.3184 3.19082 10.3438 3.25574 10.3633C3.32066 10.3828 3.38754 10.4043 3.40328 10.4121C3.57443 10.4863 3.81836 10.5078 3.97967 10.4609C4.04066 10.4434 4.0918 10.4199 4.0918 10.4102C4.0918 10.3984 4.10361 10.3906 4.11934 10.3906C4.15082 10.3906 4.34754 10.1836 4.34754 10.1504C4.34951 10.1367 4.36525 10.0918 4.38689 10.0488C4.43213 9.95703 4.43803 9.76172 4.39869 9.68555C4.38492 9.65821 4.36721 9.61328 4.36131 9.58594C4.34164 9.51172 4.16853 9.33399 4.0682 9.28516C4.02295 9.26172 3.93443 9.22852 3.87541 9.21094C3.81639 9.19336 3.74951 9.16993 3.72787 9.16211C3.70623 9.15235 3.64918 9.13282 3.6 9.11914C3.55082 9.10547 3.50361 9.08789 3.4918 9.08008C3.48197 9.07227 3.44066 9.06055 3.40328 9.05469C3.3659 9.04688 3.31672 9.03321 3.29508 9.02344C3.23213 8.9961 2.94492 8.90625 2.91738 8.90625C2.90361 8.90625 2.8741 8.89649 2.85246 8.88672C2.83082 8.875 2.79541 8.85743 2.77377 8.84766C2.75213 8.83594 2.71672 8.82813 2.69508 8.82813C2.67344 8.82813 2.65574 8.82032 2.65574 8.81055C2.65574 8.80079 2.61246 8.78907 2.55738 8.78125C2.50426 8.77344 2.45508 8.75977 2.44918 8.75C2.44328 8.73829 2.41967 8.73047 2.39803 8.73047C2.37836 8.73047 2.34492 8.72266 2.32525 8.71289C2.30754 8.70313 2.25246 8.6836 2.20328 8.66993C2.1541 8.65625 2.10689 8.63868 2.09508 8.63086C2.08525 8.62305 2.04197 8.61133 2.00066 8.60352C1.96131 8.59571 1.92197 8.58204 1.91607 8.57227C1.91016 8.5625 1.88459 8.55469 1.86098 8.55469C1.82164 8.55469 1.69574 8.51368 1.56393 8.45508C1.5423 8.44532 1.48328 8.42969 1.43213 8.41797C1.32393 8.39454 1.06623 8.31055 1.04852 8.29297C1.04066 8.28711 1.01508 8.28125 0.989508 8.28125C0.965902 8.28125 0.944262 8.27344 0.944262 8.26368C0.944262 8.22071 0.535082 8.19336 0.442623 8.22852Z" fill="#DEBF1F"/>
        <path d="M20.1148 14.5195C20.1049 14.5234 20.0577 14.5371 20.0125 14.5508C19.9652 14.5645 19.9279 14.584 19.9279 14.5937C19.9279 14.6016 19.918 14.6094 19.9043 14.6094C19.8689 14.6094 19.7056 14.7871 19.6662 14.8672C19.6485 14.9062 19.6328 14.959 19.6328 14.9863C19.6328 15.0137 19.6249 15.043 19.6131 15.0488C19.6033 15.0547 19.5934 15.0996 19.5934 15.1465C19.5934 15.1934 19.6033 15.2383 19.6131 15.2441C19.6249 15.25 19.6328 15.2793 19.6328 15.3066C19.6328 15.334 19.6485 15.3867 19.6662 15.4258C19.7095 15.5156 19.9102 15.7227 19.9554 15.7227C19.9731 15.7227 19.9869 15.7305 19.9869 15.7422C19.9869 15.752 20.0046 15.7617 20.0262 15.7617C20.0636 15.7617 20.2131 15.8047 20.2918 15.8398C20.3134 15.8477 20.3725 15.8672 20.4256 15.8809C20.4767 15.8965 20.518 15.9121 20.518 15.9199C20.518 15.9277 20.5613 15.9395 20.6164 15.9473C20.6695 15.9551 20.7187 15.9687 20.7266 15.9785C20.7325 15.9883 20.758 15.9961 20.7836 15.9961C20.8092 15.9961 20.8348 16.0039 20.8407 16.0137C20.8466 16.0215 20.88 16.0371 20.9154 16.0449C20.9508 16.0527 20.9843 16.0625 20.9902 16.0645C20.9961 16.0664 21.0275 16.0742 21.059 16.082C21.0925 16.0898 21.1338 16.1035 21.1515 16.1152C21.1711 16.125 21.2007 16.1328 21.2164 16.1328C21.2321 16.1328 21.2656 16.1426 21.2911 16.1562C21.3816 16.2031 21.4033 16.2109 21.4328 16.2109C21.4623 16.2109 21.6197 16.2598 21.6885 16.2891C21.7102 16.2988 21.7633 16.3164 21.8066 16.3301C21.8498 16.3437 21.8951 16.3613 21.9049 16.3691C21.9167 16.375 21.958 16.3887 22.0013 16.3945C22.0426 16.4023 22.0918 16.416 22.1095 16.4258C22.1272 16.4336 22.2472 16.4746 22.3771 16.5156C22.5069 16.5547 22.6269 16.5937 22.6426 16.5977C22.6584 16.6035 22.6859 16.6113 22.7016 16.6133C22.7489 16.623 22.9239 16.6816 22.9613 16.7012C22.981 16.7109 23.0125 16.7187 23.0321 16.7187C23.0518 16.7187 23.0754 16.7246 23.0833 16.7324C23.1167 16.7676 23.2564 16.7969 23.3843 16.7969C23.5554 16.7969 23.6931 16.7422 23.8131 16.627C23.9843 16.4629 24 16.4258 24 16.1621C24 15.9707 23.9941 15.9277 23.9587 15.8652C23.8898 15.7441 23.701 15.5742 23.6125 15.5547C23.581 15.5488 23.52 15.5273 23.4748 15.5059C23.4275 15.4863 23.3725 15.4687 23.3508 15.4687C23.3292 15.4687 23.2938 15.459 23.2721 15.4492C23.2505 15.4375 23.2171 15.4219 23.1974 15.4121C23.1777 15.4023 23.1226 15.3887 23.0754 15.3809C23.0262 15.373 22.979 15.3613 22.9672 15.3535C22.9574 15.3457 22.8689 15.3145 22.7705 15.2852C22.6741 15.2559 22.5777 15.2227 22.56 15.2129C22.5403 15.2031 22.5108 15.1953 22.4951 15.1953C22.4793 15.1953 22.4498 15.1875 22.4302 15.1758C22.3771 15.1465 22.0957 15.0586 22.0525 15.0586C22.0308 15.0586 22.0131 15.0488 22.0131 15.0391C22.0131 15.0273 21.9915 15.0195 21.9639 15.0195C21.9364 15.0195 21.8971 15.0098 21.8754 15C21.8538 14.9883 21.8184 14.9707 21.7967 14.9609C21.7751 14.9492 21.7456 14.9414 21.7279 14.9414C21.7003 14.9414 21.4348 14.8594 21.3541 14.8262C21.3325 14.8164 21.2616 14.793 21.1967 14.7754C21.0118 14.7207 20.7875 14.6465 20.7502 14.627C20.7305 14.6172 20.701 14.6094 20.6852 14.6094C20.6695 14.6094 20.64 14.6016 20.6203 14.5918C20.5338 14.5488 20.4374 14.5273 20.2918 14.5195C20.2052 14.5156 20.1266 14.5156 20.1148 14.5195Z" fill="#DEBF1F"/>
        <path d="M3.36393 14.623C3.22819 14.6699 3.10229 14.709 3.08459 14.709C3.06492 14.709 3.04524 14.7168 3.03934 14.7285C3.03147 14.7383 3.00983 14.7461 2.99016 14.7461C2.95279 14.7461 2.79934 14.791 2.72459 14.8242C2.70295 14.834 2.64983 14.8516 2.60656 14.8652C2.56328 14.877 2.5141 14.8945 2.49836 14.9023C2.48065 14.9102 2.43738 14.9238 2.4 14.9297C2.33311 14.9434 2.27213 14.9648 2.19934 15.002C2.17967 15.0117 2.15016 15.0195 2.13442 15.0195C2.11869 15.0195 2.08918 15.0273 2.06951 15.0371C2.0518 15.0488 1.98295 15.0703 1.91803 15.0879C1.8 15.1211 1.73311 15.1445 1.6682 15.1777C1.64852 15.1875 1.61508 15.1953 1.59541 15.1953C1.57377 15.1953 1.55016 15.2031 1.54426 15.2148C1.53836 15.2246 1.51475 15.2344 1.49508 15.2344C1.4577 15.2344 1.19016 15.3164 1.11147 15.3516C1.08984 15.3613 1.04065 15.375 1.00328 15.3828C0.965901 15.3887 0.926557 15.4004 0.914753 15.4082C0.883278 15.4277 0.759343 15.4688 0.731802 15.4688C0.718032 15.4688 0.670819 15.4863 0.625573 15.5078C0.580327 15.5293 0.513442 15.5527 0.474098 15.5586C0.389508 15.5742 0.291147 15.6328 0.196721 15.7246C0.123934 15.7949 0.0983601 15.8359 0.0157371 16C-0.00590219 16.0469 -0.00393498 16.3008 0.0177044 16.3438C0.0275404 16.3613 0.0491798 16.4063 0.0629502 16.4395C0.0767207 16.4746 0.0944256 16.5039 0.102294 16.5039C0.112131 16.5039 0.118032 16.5156 0.118032 16.5313C0.118032 16.5664 0.247868 16.6816 0.365901 16.75C0.450491 16.7988 0.479999 16.8066 0.629507 16.8066C0.779016 16.8066 0.899016 16.7852 1.01311 16.7363C1.03475 16.7285 1.11541 16.7012 1.19016 16.6777C1.26688 16.6543 1.3377 16.6289 1.34754 16.6211C1.35934 16.6133 1.39869 16.5996 1.43606 16.5918C1.47344 16.584 1.63672 16.5352 1.79803 16.4824C1.95934 16.4297 2.10098 16.3867 2.11279 16.3867C2.12656 16.3867 2.17377 16.3691 2.21901 16.3477C2.26229 16.3262 2.31738 16.3086 2.34098 16.3086C2.36262 16.3086 2.39606 16.3008 2.41574 16.2891C2.46098 16.2637 2.63016 16.2109 2.66557 16.2109C2.68328 16.2109 2.71279 16.2012 2.73442 16.1914C2.75606 16.1797 2.79147 16.1621 2.81311 16.1523C2.83475 16.1406 2.86623 16.1328 2.88197 16.1328C2.8977 16.1328 2.92721 16.125 2.94688 16.1133C2.96459 16.1035 3.06098 16.0723 3.15738 16.043C3.25574 16.0137 3.34426 15.9824 3.3541 15.9746C3.3659 15.9668 3.41311 15.9551 3.46229 15.9473C3.54885 15.9336 3.56656 15.9258 3.65311 15.8828C3.67869 15.8691 3.71606 15.8594 3.73574 15.8594C3.75738 15.8594 3.78098 15.8496 3.78688 15.8398C3.79278 15.8281 3.82033 15.8203 3.8459 15.8203C3.87147 15.8203 3.89901 15.8105 3.90492 15.8008C3.91082 15.7891 3.93442 15.7813 3.95803 15.7813C4.02885 15.7813 4.13311 15.7188 4.24131 15.6113C4.30033 15.5527 4.34754 15.4961 4.34754 15.4863C4.34754 15.4746 4.36721 15.4258 4.39082 15.375C4.4577 15.2305 4.44983 15.082 4.36328 14.9004C4.3141 14.7949 4.27082 14.7344 4.2177 14.6953C4.17639 14.6641 4.12721 14.627 4.10951 14.6113C4.04656 14.5586 3.92459 14.5313 3.76721 14.5332C3.63344 14.5352 3.57246 14.5488 3.36393 14.623Z" fill="#DEBF1F"/>
        <path d="M17.0361 18.8067C17.0203 18.8164 16.9672 18.8281 16.918 18.8359C16.8512 18.8457 16.802 18.8731 16.7115 18.9473C16.6466 19.002 16.5856 19.0664 16.5738 19.0899C16.5639 19.1113 16.5502 19.1348 16.5443 19.1406C16.5167 19.168 16.4853 19.2422 16.4853 19.2852C16.4853 19.3125 16.4774 19.3399 16.4656 19.3457C16.4557 19.3516 16.4459 19.4004 16.4459 19.4531C16.4459 19.5059 16.4557 19.5547 16.4656 19.5606C16.4774 19.5664 16.4853 19.5938 16.4853 19.6191C16.4853 19.6445 16.4951 19.6719 16.5049 19.6777C16.5167 19.6836 16.5246 19.707 16.5246 19.7285C16.5246 19.7481 16.5344 19.7656 16.5443 19.7656C16.5561 19.7656 16.5639 19.7754 16.5639 19.7871C16.5639 19.8008 16.5934 19.8457 16.6289 19.8906C16.6643 19.9356 16.7095 19.9961 16.7292 20.0254C16.7469 20.0566 16.7764 20.0957 16.7902 20.1133C16.8059 20.1309 16.8669 20.2129 16.9259 20.293C16.9849 20.3731 17.042 20.4473 17.0498 20.459C17.0597 20.4688 17.0892 20.5098 17.1148 20.5469C17.1403 20.584 17.1738 20.627 17.1875 20.6406C17.2013 20.6543 17.2131 20.6758 17.2131 20.6856C17.2131 20.6953 17.2289 20.7207 17.2485 20.7441C17.2662 20.7656 17.3016 20.8086 17.3253 20.8359C17.3508 20.8652 17.3705 20.8945 17.3705 20.9024C17.3705 20.9102 17.3823 20.9277 17.3961 20.9414C17.4098 20.9551 17.4649 21.0274 17.518 21.1035C17.5712 21.1777 17.6203 21.2441 17.6262 21.25C17.6341 21.2559 17.7049 21.3516 17.7836 21.4649C17.8643 21.5781 17.941 21.6816 17.9528 21.6934C17.9666 21.707 17.9961 21.75 18.0216 21.791C18.0472 21.832 18.0728 21.8691 18.0787 21.875C18.0905 21.8828 18.3698 22.2637 18.4682 22.4024C18.5292 22.4883 18.6767 22.6289 18.7574 22.6758C18.8262 22.7168 18.8616 22.7227 19.0426 22.7227C19.2492 22.7246 19.2492 22.7246 19.3574 22.6524C19.4164 22.6133 19.4892 22.5566 19.5187 22.5254C19.5876 22.4531 19.6721 22.2949 19.6721 22.2363C19.6721 22.2109 19.682 22.1836 19.6918 22.1777C19.7036 22.1719 19.7115 22.1309 19.7115 22.0899C19.7115 22.0488 19.7036 22.0078 19.6918 22.002C19.682 21.9961 19.6721 21.9688 19.6721 21.9434C19.6721 21.877 19.5836 21.7207 19.4557 21.5625C19.4164 21.5137 19.3672 21.4492 19.3476 21.418C19.3259 21.3867 19.2905 21.3379 19.2689 21.3086C19.2472 21.2793 19.1941 21.2031 19.1508 21.1406C19.1076 21.0781 19.0564 21.0117 19.0387 20.9941C19.019 20.9766 19.0033 20.9551 19.0033 20.9492C19.0033 20.9414 18.9915 20.9219 18.9797 20.9082C18.9207 20.8438 18.9049 20.8203 18.9049 20.8027C18.9049 20.793 18.8971 20.7813 18.8892 20.7774C18.8813 20.7734 18.8302 20.709 18.7771 20.6348C18.6689 20.4824 18.6689 20.4824 18.6039 20.4004C18.5784 20.3672 18.4918 20.25 18.4131 20.1367C18.3325 20.0234 18.2616 19.9277 18.2518 19.9258C18.2439 19.9219 18.2361 19.9063 18.2361 19.8906C18.2361 19.875 18.2302 19.8633 18.2223 19.8633C18.2125 19.8633 18.181 19.8242 18.1475 19.7754C18.1161 19.7285 18.0826 19.6875 18.0748 19.6875C18.0649 19.6875 18.059 19.6777 18.059 19.668C18.059 19.6504 17.8131 19.3047 17.7384 19.2188C17.7246 19.2031 17.6892 19.1524 17.6577 19.1074C17.5594 18.9609 17.3666 18.8281 17.2544 18.8281C17.223 18.8281 17.1895 18.8184 17.1836 18.8086C17.1698 18.7852 17.0774 18.7832 17.0361 18.8067Z" fill="#DEBF1F"/>
        <path d="M6.66295 18.875C6.49377 18.9629 6.44065 19.0176 6.18295 19.3945C6.14163 19.4531 6.09245 19.5156 6.07475 19.5332C6.05508 19.5508 6.03934 19.5723 6.03934 19.5801C6.03934 19.5879 6.0177 19.6211 5.99016 19.6562C5.92721 19.7324 5.92721 19.7344 5.83475 19.8633C5.79147 19.9219 5.75016 19.9727 5.74032 19.9766C5.73245 19.9805 5.72459 19.9961 5.72459 20.0117C5.72459 20.0273 5.71672 20.0391 5.70688 20.0391C5.69704 20.0391 5.68327 20.0547 5.67737 20.0742C5.6695 20.0937 5.64983 20.127 5.63016 20.1484C5.61049 20.168 5.52983 20.2773 5.45114 20.3906C5.37049 20.5039 5.2977 20.5977 5.28983 20.6016C5.28 20.6055 5.27213 20.6211 5.27213 20.6367C5.27213 20.6523 5.26426 20.6641 5.25639 20.6641C5.24852 20.6641 5.22491 20.6934 5.20327 20.7266C5.1836 20.7617 5.15606 20.8008 5.14622 20.8125C5.13442 20.8242 5.10688 20.8574 5.08524 20.8887C4.97311 21.0449 4.89442 21.1523 4.83541 21.2305C4.8 21.2793 4.76459 21.3262 4.75672 21.3379C4.74885 21.3477 4.72131 21.3828 4.69573 21.416C4.59541 21.5449 4.43016 21.791 4.39475 21.8652C4.35344 21.9551 4.3436 22.2695 4.38295 22.3086C4.39672 22.3223 4.40655 22.3457 4.40655 22.3633C4.40655 22.3828 4.42622 22.418 4.44786 22.4434C4.47147 22.4687 4.50295 22.5098 4.51868 22.5332C4.53442 22.5566 4.59737 22.6094 4.65836 22.6504L4.77049 22.7246H4.99672H5.22295L5.33704 22.6484C5.43737 22.582 5.5259 22.4805 5.71475 22.2168C5.73049 22.1953 5.78557 22.1211 5.83672 22.0508C5.88983 21.9805 5.95672 21.8828 5.99016 21.8359C6.02163 21.7871 6.06295 21.7344 6.07868 21.7187C6.09639 21.7031 6.13573 21.6484 6.16721 21.5977C6.20065 21.5449 6.23213 21.5039 6.24196 21.5039C6.24983 21.5039 6.25573 21.4922 6.25573 21.4766C6.25573 21.4609 6.2636 21.4453 6.27147 21.4414C6.27934 21.4375 6.34426 21.3555 6.41311 21.2598C6.48196 21.1621 6.55082 21.0723 6.56459 21.0586C6.57836 21.043 6.6 21.0137 6.61377 20.9902C6.64131 20.9355 6.75344 20.793 6.77311 20.7852C6.78098 20.7812 6.78688 20.7695 6.78688 20.7598C6.78688 20.7363 6.92459 20.5469 6.94032 20.5469C6.94819 20.5469 6.97967 20.502 7.01311 20.4492C7.04459 20.3945 7.07803 20.3516 7.0859 20.3516C7.09377 20.3516 7.10163 20.3418 7.10163 20.3301C7.10163 20.3164 7.13114 20.2715 7.16655 20.2266C7.20196 20.1816 7.26098 20.1055 7.29442 20.0547C7.32983 20.0059 7.36918 19.9531 7.38098 19.9375C7.39475 19.9238 7.44196 19.8594 7.48524 19.7949L7.56393 19.6777V19.457C7.56393 19.332 7.55606 19.2305 7.54426 19.2227C7.53245 19.2148 7.51082 19.1836 7.49508 19.1504C7.44983 19.0605 7.38098 18.9902 7.26098 18.9102C7.15475 18.8418 7.14295 18.8379 6.95409 18.832C6.77508 18.8262 6.7495 18.8301 6.66295 18.875Z" fill="#DEBF1F"/>
        <path d="M11.882 20.4688C11.882 20.4785 11.8603 20.4883 11.8328 20.4883C11.7777 20.4883 11.5967 20.5977 11.5377 20.668C11.4826 20.7344 11.4098 20.875 11.4098 20.918C11.4098 20.9375 11.402 20.9609 11.3902 20.9668C11.3764 20.9746 11.3705 21.5859 11.3705 22.7363C11.3705 23.8945 11.3764 24.4922 11.3902 24.4922C11.402 24.4922 11.4098 24.5078 11.4098 24.5293C11.4098 24.6543 11.5967 24.877 11.7738 24.959C11.88 25.0078 12.1338 25.0156 12.238 24.9727C12.3797 24.9141 12.5272 24.7871 12.5744 24.6816C12.5882 24.6523 12.6059 24.6289 12.6138 24.6289C12.6236 24.6289 12.6295 24.6074 12.6295 24.582C12.6295 24.5547 12.6393 24.5273 12.6492 24.5215C12.6629 24.5137 12.6688 23.8926 12.6688 22.7246C12.6688 21.5566 12.6629 20.9355 12.6492 20.9277C12.6393 20.9219 12.6295 20.8984 12.6295 20.877C12.6295 20.8574 12.6216 20.8398 12.6098 20.8398C12.6 20.8398 12.5902 20.8223 12.5902 20.8008C12.5902 20.7148 12.3147 20.4883 12.2085 20.4883C12.181 20.4883 12.1534 20.4785 12.1475 20.4688C12.1416 20.457 12.0787 20.4492 12.0079 20.4492C11.937 20.4492 11.882 20.457 11.882 20.4688Z" fill="#DEBF1F"/>
    </g>
    <defs>
        <filter id="filter0_i" x="0" y="-0.000335693" width="24" height="25.0011" filterUnits="userSpaceOnUse" color-interpolation-filters="sRGB">
            <feFlood flood-opacity="0" result="BackgroundImageFix"/>
            <feBlend mode="normal" in="SourceGraphic" in2="BackgroundImageFix" result="shape"/>
            <feColorMatrix in="SourceAlpha" type="matrix" values="0 0 0 0 0 0 0 0 0 0 0 0 0 0 0 0 0 0 127 0" result="hardAlpha"/>
            <feOffset/>
            <feGaussianBlur stdDeviation="2"/>
            <feComposite in2="hardAlpha" operator="arithmetic" k2="-1" k3="1"/>
            <feColorMatrix type="matrix" values="0 0 0 0 0.708333 0 0 0 0 0.4675 0 0 0 0 0 0 0 0 0.25 0"/>
            <feBlend mode="normal" in2="shape" result="effect1_innerShadow"/>
        </filter>
    </defs>
</svg>






