<svg width="26" height="22" viewBox="0 0 26 22" fill="none" xmlns="http://www.w3.org/2000/svg">
    <path d="M6.4025 0.123262C6.37 0.191971 6.23594 0.472864 6.10391 0.747696L5.86625 1.24886L6.58531 2.44518L7.30437 3.64353L5.99016 3.64959L4.67594 3.65363L4.33672 4.29221C4.13156 4.67616 4.00359 4.94089 4.00969 4.9611C4.01578 4.97726 4.15594 5.2137 4.31641 5.48449C4.58656 5.93513 4.61703 5.97757 4.66781 5.97757C4.69828 5.97757 5.54937 5.9998 6.56094 6.02809C7.5725 6.05638 8.4825 6.07861 8.58406 6.07861H8.76891L9.86375 7.89936C10.465 8.90169 10.9627 9.7282 10.9647 9.73831C10.9688 9.74841 10.0709 9.7565 8.77906 9.7565H6.58734L5.60422 8.10347L4.61906 6.45246H3.85937H3.09766L2.82953 6.97787C2.68125 7.26685 2.56141 7.51339 2.55937 7.52551C2.55937 7.53966 2.85594 8.04284 3.21953 8.64707L3.87766 9.74639L2.29734 9.75245L0.717031 9.7565L0.359531 10.3304C0.160469 10.6457 0 10.9205 0 10.9407C0 10.9609 0.1625 11.2479 0.359531 11.5793L0.719062 12.1815H2.18766C2.99609 12.1815 3.65625 12.1875 3.65625 12.1936C3.65625 12.2017 3.37797 12.6281 3.03672 13.1454C2.69547 13.6607 2.41719 14.0871 2.41719 14.0911C2.41719 14.0972 2.56141 14.3781 2.73609 14.7176L3.055 15.3339L3.76594 15.338L4.47687 15.3441L4.58047 15.1824C4.63734 15.0935 5.08625 14.3821 5.57578 13.6001L6.4675 12.1815H8.69781C9.92469 12.1815 10.9281 12.1835 10.9281 12.1875C10.9281 12.1916 10.4853 12.9292 9.945 13.8305C9.40266 14.7297 8.9375 15.5037 8.90906 15.5502L8.85828 15.6371L6.87172 15.6229L4.88516 15.6108L4.52156 16.215C4.32047 16.5464 4.14781 16.8334 4.13766 16.8516C4.12141 16.8758 4.19453 16.993 4.47078 17.381L4.82422 17.8802H6.15875H7.49328L6.71125 19.1775C6.27859 19.8929 5.92312 20.483 5.92109 20.4891C5.91703 20.4951 6.07141 20.772 6.26437 21.1054L6.61375 21.7096H7.36328H8.11281L8.84609 20.4931C9.24828 19.8242 9.58141 19.2766 9.5875 19.2766C9.59359 19.2766 9.83531 19.7131 10.1258 20.2486C10.4162 20.7821 10.6641 21.2307 10.6742 21.2448C10.6884 21.265 10.8936 21.2832 11.4014 21.3156C11.7914 21.3398 12.1123 21.356 12.1164 21.3519C12.1184 21.3479 12.283 21.0852 12.482 20.7639C12.7319 20.3597 12.8375 20.1718 12.8273 20.1475C12.8212 20.1293 12.4069 19.4099 11.9072 18.5491C11.4095 17.6882 11.0012 16.9688 11.0012 16.9526C10.9992 16.9142 13.1259 13.3717 13.1462 13.3798C13.1544 13.3818 13.6094 14.1275 14.1558 15.0369L15.1491 16.6919L14.9012 17.0981C14.3589 17.9853 13.1564 19.9515 13.1483 19.9657C13.1422 19.9778 13.8795 21.2347 13.8998 21.2469C13.9019 21.2469 14.1822 21.2287 14.5234 21.2064L15.143 21.164L15.8133 20.0586C16.183 19.4524 16.4897 18.9613 16.4978 18.9674C16.5039 18.9755 16.8594 19.5635 17.2859 20.2748C17.7125 20.9862 18.0639 21.5702 18.0659 21.5702C18.0659 21.5722 18.393 21.5803 18.7891 21.5884L19.5102 21.6025L19.8819 20.9922C20.087 20.6548 20.2516 20.3658 20.2455 20.3476C20.2414 20.3294 19.9164 19.7797 19.5223 19.125C19.1303 18.4703 18.8114 17.9307 18.8175 17.9267C18.8236 17.9206 19.3497 17.9368 19.9855 17.963C20.6233 17.9873 21.1494 18.0034 21.1514 17.9994C21.188 17.9549 21.9253 16.894 21.9314 16.8758C21.9395 16.8576 21.2956 15.7199 21.2489 15.6734C21.2428 15.6654 20.3775 15.6431 19.3273 15.6249C18.0091 15.6007 17.4098 15.5845 17.3936 15.5684C17.3773 15.5522 15.5228 12.4745 15.3623 12.1956C15.3583 12.1875 16.2906 12.1815 17.4362 12.1815H19.5203L20.4567 13.7436C20.9727 14.6004 21.4053 15.3158 21.4195 15.3319C21.4419 15.3542 21.5577 15.3562 22.1061 15.3441L22.7662 15.3299L23.142 14.7681L23.5178 14.2084L22.9308 13.202C22.6078 12.6483 22.3438 12.1916 22.3438 12.1875C22.3438 12.1855 22.9877 12.1815 23.7737 12.1815H25.2037L25.6019 11.5469C25.8212 11.1973 26 10.8922 26 10.87C26 10.8457 25.8212 10.5871 25.6019 10.292L25.2017 9.7565H23.7534C22.9552 9.7565 22.3031 9.75043 22.3031 9.74437C22.3031 9.73831 22.5956 9.24725 22.9552 8.65313C23.3127 8.05901 23.6031 7.56391 23.5991 7.55381C23.595 7.5437 23.4142 7.27291 23.1969 6.9516L22.8008 6.36759L22.6687 6.35344C22.5956 6.34738 22.3153 6.34132 22.0472 6.34132H21.5556L20.4648 8.04891L19.372 9.7565H17.3428C15.4172 9.7565 15.3156 9.75447 15.3339 9.72012C15.3461 9.70193 15.8377 8.88552 16.4267 7.90745L17.4992 6.12913L19.4086 6.12307L21.32 6.11903L21.6491 5.56128L21.9781 5.00353L21.6612 4.41548C21.4845 4.09013 21.3403 3.82338 21.3383 3.82136C21.3362 3.81732 20.798 3.80721 20.1419 3.79711C19.4858 3.787 18.9434 3.77286 18.9373 3.76679C18.9312 3.76275 19.2441 3.23128 19.632 2.59068C20.0728 1.86117 20.3328 1.41052 20.3267 1.38627C20.3145 1.34586 19.5833 0.0808258 19.565 0.0687008C19.5569 0.0646591 19.2359 0.0889091 18.85 0.125284L18.1492 0.187929L17.4627 1.32969C17.0869 1.95816 16.7598 2.50176 16.7375 2.53814L16.6969 2.60685L16.055 1.53783C15.7016 0.951797 15.4009 0.458719 15.3867 0.442553C15.3644 0.420322 15.2466 0.420322 14.6169 0.452656L13.8755 0.489031L13.5627 1.00636L13.2498 1.52571L14.2431 3.27574L15.2384 5.02778L14.1944 6.76367C13.6216 7.71951 13.1462 8.49349 13.1381 8.48742C13.132 8.47934 12.6344 7.65485 12.0352 6.65454C11.4359 5.65424 10.9322 4.81762 10.918 4.79539C10.8916 4.75093 10.7839 4.93281 12.2627 2.49772L12.8111 1.59442L12.4881 1.06294C12.3094 0.769924 12.153 0.521364 12.1408 0.507217C12.1245 0.491051 11.897 0.472864 11.4278 0.450636C11.05 0.432447 10.7392 0.420322 10.7352 0.424364C10.7331 0.428406 10.4528 0.872986 10.1136 1.41456C9.77437 1.95816 9.49203 2.40072 9.48594 2.40072C9.47984 2.3987 9.15891 1.86925 8.77297 1.22461C8.14734 0.177824 8.06406 0.0464725 8.01125 0.0343475C7.97875 0.0262642 7.61719 0.0161591 7.20687 0.0100975L6.46141 -7.62939e-06L6.4025 0.123262Z" fill="white" fill-opacity="0.67"/>
</svg>

